<svg width="295" height="198" viewBox="0 0 295 198" fill="none" xmlns="http://www.w3.org/2000/svg">
<path d="M60.6591 89.6359C61.4758 90.6121 62.8417 92.0183 64.4672 92.4965M66.3648 87.43C68.1707 88.9578 69.4522 90.7113 74.4816 90.9348C76.8919 91.042 80.4932 90.1317 84.2353 92.7285M73.0174 70.1994C69.1886 69.3307 58.617 70.9072 53.6396 78.3057C47.4952 87.4389 50.2369 94.5342 50.2868 102.569C50.3285 109.275 47.1733 114.223 48.0456 119.889M78.709 70.0733C87.0797 69.8864 103.341 73.7129 104.383 95.39M86.0436 95.4118C87.2429 94.5871 89.9331 93.5976 91.0995 96.2367C92.5576 99.5357 92.4258 105.237 87.358 104.077M57.5375 96.4277C57.9198 100.882 58.9563 108.24 60.0941 110.076M57.1179 111.188C58.5403 110.355 61.9516 109.541 64.2176 112.945C67.0502 117.2 66.1536 120.248 64.5519 122.316M66.4286 118.563C68.0302 119.623 72.2852 121.169 76.4926 118.874M66.008 98.4913C66.3306 101.272 67.0498 107.033 67.3462 107.826C67.6426 108.62 68.8402 109.002 69.402 109.093M62.7926 102.292L62.8045 102.627M75.8089 100.822L75.8208 101.157M72.9429 113.304C73.2816 113.404 73.7814 113.654 75.2857 113.221C76.7899 112.787 77.8794 110.782 78.5129 109.754M87.7404 105.404C87.8121 107.412 87.1784 112.193 84.0706 115.253C80.1859 119.077 76.5175 122.893 75.1415 127.97C73.894 132.573 74.9019 140.042 77.3401 142.636M82.205 138.106C81.8185 139.795 81.6669 143.688 84.1529 145.744M40.3955 130.885C45.0491 126.698 54.7534 118.175 56.3407 117.582C57.928 116.99 62.508 121.384 64.5996 123.655C60.3721 130.396 50.0037 146.598 50.6491 145.905M54.9798 139.077C59.4939 137.241 70.4487 133.566 73.6711 133.719M102.131 104.891C97.0154 111.775 94.9661 125.721 94.2774 128.963C93.4167 133.015 89.2923 148.911 89.3997 151.923M88.0133 150.632C83.1008 150.696 72.6687 150.711 70.24 150.261C67.2041 149.699 56.4349 148.408 56.4469 148.743C56.4564 149.01 52.7095 156.695 54.2352 161.89C58.3109 163.42 72.1279 165.608 76.5024 166.122C80.8261 166.631 99.3555 167.988 105.882 163.064C112.408 158.14 117.68 136.841 119.019 136.793M56.1912 149.422C50.3751 147.619 47.7186 141.804 46.7777 140.71C45.3794 139.084 43.4239 136.875 41.2915 137.22M44.1362 141.809C36.1924 134.386 33.0921 142.203 35.2314 145.813C36.6902 148.275 41.1714 152.638 45.5819 154.156C47.2782 154.74 49.7926 156.687 53.8803 158.552M41.3751 139.562L37.6313 121.277C28.4715 123.348 16.2679 127.035 10.4363 128.372M9.04118 128.669C7.75328 128.917 11.5277 149.133 18.2521 168.553C27.9217 167.202 46.9095 161.936 46.9095 161.936C46.9095 161.936 45.3462 156.944 44.5695 153.956M9.04118 128.669L28.0429 114.441M9.04118 128.669C9.45169 128.591 9.91893 128.49 10.4363 128.372M106.315 100.05C108.837 98.7316 115.533 97.3087 122.14 102.167C127.573 106.161 134.526 112.131 142.861 116.172M163.911 164.68C160.23 164.811 139.517 163.097 128.209 159.587C121.432 157.483 114.704 154.037 112.326 153.116M249.718 62.0959C246.54 61.9826 243.317 63.5326 241.411 64.0805C241.019 64.1934 240.682 64.2638 240.413 64.2683M251.128 64.0562C251.188 65.7295 251.558 66.7216 251.582 67.391M237.67 62.5257C234.024 63.661 231.406 67.4655 230.403 64.7955C229.084 61.2869 227.97 57.9055 228.084 56.8359C228.335 54.4812 243.767 36.1707 246.444 36.0752C248.787 35.9916 248.667 42.0276 245.499 47.1671M89.2369 53.4108L89.1056 49.7294M104.871 59.5551L108.743 55.3958M109.34 72.1293L114.026 71.9622M233.068 74.4182C232.972 71.7408 232.516 68.3454 231.751 65.6919M257.846 55.1041C259.595 53.3624 259.617 53.2305 261.408 51.626C268.032 45.6931 268.807 42.9847 266.715 40.7137C265.753 39.6686 240.587 50.3582 238.71 54.1112C237.663 56.2054 238.582 60.414 239.729 63.8881C239.821 64.1653 240.058 64.2742 240.413 64.2683M240.413 64.2683C240.809 65.9863 241.609 69.6233 241.638 70.4265M254.2 56.2394L256.292 58.5105M251.224 57.3508C252.264 58.319 254.009 60.2674 254.38 61.2595M29.7823 117.747L10.4363 128.372M145.883 117.525C149.575 118.842 151.039 117.292 152.918 117.816C155.266 118.472 156.259 120.558 157.625 120.801C159.301 121.1 160.298 119.78 162.31 120.198M170.607 164.579C169.197 156.364 166.079 140.949 164.907 136.299C163.318 129.989 162.996 120.283 166.008 120.175C169.02 120.068 177.686 118.754 191.168 120.954C204.65 123.153 217.73 123.554 224.029 121.654C229.069 120.134 231.444 119.714 232.002 119.694L231.418 75.1473C233.625 74.3983 238.31 72.9579 239.391 73.1874C240.741 73.4743 239.964 70.4862 242.976 70.3787C245.988 70.2713 253.28 68.0006 256.662 68.8853C260.045 69.7699 278.346 126.519 279.273 129.736C280.803 135.043 279.793 146.225 275.388 152.327C273.153 155.422 257.363 163.693 245.375 165.796C234.892 167.635 206.919 167.975 195.17 167.389C187.296 166.996 175.102 165.313 170.607 164.579Z" stroke="#1B212B" stroke-width="2" stroke-linecap="round" stroke-linejoin="round"/>
<path d="M164.871 135.296C163.379 131.06 164.545 123.02 165.015 120.546C168.362 120.427 177.58 119.562 182.418 119.925C188.466 120.38 201.312 123.47 207.001 123.267C211.553 123.104 229.359 120.794 232.336 119.683L231.752 75.1356C240.74 73.4745 241.338 71.4426 242.33 71.0724C244.998 70.0767 253.434 69.2242 257.008 69.2084C265.338 86.6714 277.564 125.039 278.185 127.43C278.962 130.418 283.501 141.331 276.021 151.299C269.303 160.251 248.35 164.685 243.712 166.19C240.433 167.255 203.882 167.414 198.169 166.947C195.232 166.707 178.121 165.428 170.93 164.233C169.874 156.563 166.362 139.532 164.871 135.296Z" fill="#1B212B"/>
</svg>
