<svg width="295" height="198" viewBox="0 0 295 198" fill="none" xmlns="http://www.w3.org/2000/svg">
<path d="M114.277 53.979C115.214 54.454 117.942 55.2486 121.351 54.6278M120.257 50.0722C121.411 50.8454 125.003 52.3425 130.145 52.1458C135.286 51.949 139.805 50.9587 141.422 50.4882M106.095 56.4376C105.966 58.3837 105.847 62.7609 106.412 64.7009C107.118 67.1259 109.141 71.9524 109.517 73.777C109.894 75.6016 111.021 89.0443 111.739 91.7753C112.313 93.9601 113.986 97.1041 114.751 98.403M106.674 47.527C108.327 40.0056 115.45 25.3685 130.714 26.9912C149.795 29.0195 160.468 43.6294 166.034 52.9178M113.887 59.8174C115.652 63.2235 119.91 69.7377 120.748 70.8953C122.042 72.6847 125.608 77.7587 131.117 77.5479C136.625 77.3371 143.949 68.4749 146.091 68.3929C147.805 68.3273 152.557 69.1671 154.719 69.5952M144.223 51.607C144.929 54.032 147.148 59.1576 150.377 60.2599C153.607 61.3623 157.883 61.5052 159.617 61.4388M122.338 64.398L122.35 64.704M134.652 57.7968L134.663 58.1028M123.611 57.6063C125.262 60.7103 128.628 66.977 128.882 67.2125C129.136 67.448 130.424 67.46 131.036 67.4366M136.027 69.6976C136.639 69.6741 138.101 69.4343 139.052 68.6623C140.003 67.8903 140.806 66.4497 141.089 65.8259M114.874 69.5876C114.466 72.2595 114.397 77.9426 117.391 79.2991C120.386 80.6557 124.799 80.6503 126.631 80.478M124.512 81.1721L124.653 84.8447M133 78.7018L132.575 83.622M131.557 113.085C131.724 110.892 131.94 108.138 132.175 105.209M159.29 108.958C156.214 111.324 148.396 117.406 141.737 122.81C135.078 128.214 127.018 127.97 123.821 127.173C121.53 126.035 116.755 121.927 115.984 114.6C115.213 107.274 119.841 92.5891 122.251 86.1626C126.395 84.9824 134.574 82.9938 134.14 84.4816C133.814 85.6035 132.898 96.2282 132.175 105.209M161.395 59.8383C159.696 60.8228 156.154 63.8395 155.579 68.0298C154.86 73.2678 153.61 80.6715 155.551 91.3247C157.103 99.8472 161.341 117.155 163.266 124.744M150.975 75.8685C145.476 84.3543 134.366 101.576 133.913 102.574C133.461 103.572 132.566 104.746 132.175 105.209M166.151 55.9783C168.988 55.3589 177.288 56.4114 181.308 58.9547C190.152 64.5491 201.517 75.0869 209.3 102.257C215.526 123.994 212.695 132.252 210.501 133.664C204.859 135.719 190.242 139.282 176.918 137.095M165.985 123.721C160.578 126.584 148.798 132.715 144.937 134.334C141.075 135.953 131.305 141.19 126.902 143.606L127.93 151.536M178.941 85.8321C179.744 90.8075 181.652 102.218 182.856 108.057C184.362 115.355 182.51 131.057 176.871 135.87C171.232 140.684 156.117 146.166 152.468 146.919C149.548 147.521 135.077 151.671 128.206 153.671L127.93 151.536M126.631 144.536C124.563 143.9 120.416 142.322 119.486 142.051C118.426 141.742 115.143 140.685 115.249 143.439M119.603 145.111C117.241 144.793 112.917 145.082 111.399 146.958C109.35 149.488 111.53 152.124 113.163 153.02C114.729 153.88 116.882 154.104 119.943 153.987C122.391 153.893 126.312 152.211 127.93 151.536M149.716 131.086L140.583 124.693M115.448 110.368C114.173 109.094 111.725 107.535 108.369 107.842C103.975 108.244 97.1742 111.642 96.7846 117.48C96.395 123.319 98.1361 128.769 99.5009 132.395C100.593 135.295 103.76 142.244 105.207 145.356C102.155 145.677 96.3269 146.958 94.0944 151.298C89.3601 160.502 94.7972 169.661 104.495 174.807C112.36 178.98 129.413 185.194 146.281 185.468C163.148 185.742 184.902 185.522 198.299 175.202C212.292 164.422 213.089 145.212 211.149 134.559M108.591 177.715C106.739 180.034 103.479 185.083 105.258 186.731C107.483 188.791 119.619 185.568 122.88 182.685M123.984 11.3109L123.785 6.10807M143.971 12.998L145.961 8.93738M158.06 20.7343L162.58 18.7223" stroke="#1B212B" stroke-width="2" stroke-linecap="round" stroke-linejoin="round"/>
<path d="M209.9 133.993C205.309 137.439 184.957 138.932 175.988 136.823C173.68 140.59 143.266 149.416 128.217 153.976L127.841 152.152C126.425 152.512 124.573 153.258 122.379 153.587C119.636 153.998 111.738 155.833 110.597 150.053C109.684 145.429 114.789 144.785 116.825 144.605C116.189 144.016 115.279 142.641 116.72 141.85C118.16 141.059 123.499 142.816 126.301 143.935L149.727 131.392L139.959 124.41C138.554 125.076 136.05 126.398 132.413 127.457C128.468 128.605 122.255 126.313 119.725 124.265C117.7 122.626 115.972 114.294 115.513 110.327C114.23 108.844 111.385 108.669 109.074 108.669C105.619 108.669 99.6103 111.242 97.9029 114.679C96.1955 118.116 97.2541 121.753 97.3595 124.507C97.4439 126.711 102.905 138.598 105.513 145.344C99.1091 146.202 95.4769 148.61 94.1524 152.828C89.6349 167.214 98.4339 168.602 100.07 171.298C101.705 173.994 115.544 182.368 137.358 184.583C154.896 186.364 178.191 186.392 196.203 176.507C214.214 166.623 213.774 131.086 209.9 133.993Z" fill="#1B212B"/>
</svg>
