<svg width="295" height="198" viewBox="0 0 295 198" fill="none" xmlns="http://www.w3.org/2000/svg">
<path d="M167.918 82.6463C148.373 94.7487 120.514 142.915 104.204 171.803C108.74 176.388 119.987 179.789 131.148 180.069C161.57 180.832 184.315 175.858 196.152 174.333C206.58 172.989 267.455 164.833 283.21 161.069L280.03 145.971L208.016 143.658L186.101 144.891L176.273 143.852L162.691 141.58L174.401 127.398L183 142.964L186.079 144.217L210.5 143.443C207.956 137.782 204.464 127.491 204.387 125.061C204.291 122.025 186.277 86.4557 184.178 84.1579C182.232 82.0285 173.21 79.3691 167.918 82.6463Z" fill="#1B212B"/>
<path d="M93.4519 30.6198C90.5216 30.914 83.837 33.2404 80.5408 40.1925C76.4207 48.8825 76.2407 59.2712 76.8627 63.4643M100.262 28.6963C104.236 28.7273 113.3 29.4949 117.765 32.317C123.346 35.8445 130.655 42.7337 130.071 52.7609C129.486 62.7882 123.045 71.2254 122.091 74.739C121.137 78.2525 120.357 84.8314 118.998 87.9835C117.91 90.5052 115.653 92.2732 114.66 92.842M103.668 48.107C102.037 48.712 98.5198 50.8589 97.5022 54.6067C96.2301 59.2915 96.469 63.5062 92.4063 66.4272C88.3435 69.3482 85.5171 73.7367 85.3077 76.8236C85.1401 79.2932 85.5564 83.4723 85.7854 85.2531M107.796 46.3355C107.982 47.3501 108.681 49.7449 109.994 51.208M113.16 46.0315C113.233 47.3087 113.783 50.2245 115.402 51.6703C117.426 53.4775 120.6 55.2196 121.837 56.6871C122.826 57.8611 123.685 59.9137 123.991 60.7932M121.374 62.0947C119.639 65.3963 115.804 71.4445 114.681 72.8526C113.61 74.1942 111.57 75.4075 108.68 75.499C105.791 75.5905 102.485 74.697 101.27 73.6126C100.298 72.7452 98.5279 77.2275 97.7642 79.5772M103.937 59.6235L103.958 60.0067M116.776 62.3553L116.798 62.7385M113.599 59.3175C112.903 62.3222 112.11 66.6325 111.515 66.9738C110.919 67.315 109.98 67.0224 109.98 67.0224M104.48 69.2025C104.48 69.2025 105.09 70.0617 105.798 70.7262C106.59 71.469 108.145 71.6871 108.08 71.6891M85.3762 76.237C85.6895 77.2442 87.6947 79.6763 88.9733 80.4598C90.7828 81.5687 94.0629 82.0933 94.0629 82.0933M82.2564 70.462C79.6079 68.9464 73.562 66.2652 70.5662 67.665C66.8215 69.4148 59.3627 81.0215 56.8263 88.4035C54.4427 95.3408 51.1194 106.338 49.8835 111.661M102.384 79.6997C104.642 81.1093 108.507 84.2052 109.815 88.6453C111.122 93.0855 112.056 105.469 112.233 111.046M48.2885 115.439C44.5924 122.567 36.7794 137.54 35.0966 140.403C32.9931 143.982 31.0633 150.625 33.6228 155.093C36.1824 159.561 31.4759 157.906 31.223 160.226C30.9702 162.547 32.6331 164.759 31.4836 164.824C30.5641 164.876 28.0932 166.041 26.9727 166.617L29.3445 174.555C33.07 174.728 41.7169 174.469 46.4997 172.045C51.2825 169.622 52.1018 162.374 51.9136 159.054C52.9282 158.868 55.2377 158.019 56.3595 156.111C57.4814 154.202 68.4211 129.289 73.7508 117.071M26.6878 167.303C21.7574 168.479 10.3727 170.787 9.26823 173.002C8.16373 175.217 13.4981 174.945 15.7826 174.56M23.4017 171.432C21.8347 171.68 16.8845 172.989 18.0973 174.911C18.7627 175.966 25.0126 175.035 29.2077 174.134M115.16 101.655C118.909 97.7264 126.548 89.6313 127.109 88.6769C127.67 87.7226 132.177 83.1364 134.36 80.9626C136.873 82.3577 142.284 85.1262 143.816 85.0393C145.732 84.9308 137.549 96.5418 136.486 98.1396C135.424 99.7374 130.359 107.923 128.913 109.543C127.757 110.838 123.22 118.117 121.223 121.305M136.863 81.7097C136.554 78.5239 136.514 70.6259 138.353 70.5216C140.192 70.4174 140.768 72.4349 140.825 73.4566M143.386 71.4557C145.058 69.3108 148.906 65.7614 150.919 68.7224C152.932 71.6835 147.907 78.8872 145.144 82.119M112.45 114.877C111.869 115.935 110.725 118.358 110.794 119.584C110.881 121.117 113.99 121.709 115.226 123.177C116.463 124.644 115.422 126.625 116.593 126.943C117.764 127.261 120.743 125.555 123.873 126.53C126.377 127.311 126.252 127.805 125.876 127.955M64.7032 137.686C64.7032 137.686 67.3422 146.222 69.4738 150.589C72.6113 157.017 78.9229 162.12 83.062 165.134C86.5993 167.709 96.3101 171.242 101.06 171.644M211.067 143.992C208.861 138.992 205.144 128.16 204.255 125.543C203.301 122.732 189.208 90.6478 186.266 86.2019C183.323 81.756 177.893 80.9105 169.847 81.3666C163.41 81.7314 136.895 114.389 127.965 130.911C120.366 143.77 104.958 169.885 104.125 171.47C103.084 173.451 115.331 179.295 128.063 180.107C153.831 181.753 183.385 176.426 193.464 174.756C207.912 172.362 265.23 165.848 283.688 161.471C282.767 156.526 280.687 146.496 279.733 145.935C278.54 145.234 215.623 144.778 212.898 144.164C210.172 143.55 189.843 144.317 186.778 144.491C184.325 144.63 168.468 142.454 160.845 141.348M162.761 141.24C164.624 137.931 172.388 127.8 174.412 127.736C176.437 127.672 181.734 139.633 183.754 143.618M281.135 143.549L285.437 144.843M282.921 141.142L285.624 141.373M284.258 137.606C284.949 133.98 286.783 126.547 288.587 125.829C290.843 124.933 292.397 125.229 292.889 127.123C293.381 129.017 294.344 152.795 292.942 155.18C291.82 157.089 288.021 158.791 286.262 159.403M145.897 60.7049L145.593 55.3407M153.56 60.2706L155.258 56.3305M158.1 65.7791L162.611 63.9859" stroke="#1B212B" stroke-width="1.99553" stroke-linecap="round" stroke-linejoin="round"/>
</svg>
